<svg width="18" height="17" viewBox="0 0 18 17" fill="none" xmlns="http://www.w3.org/2000/svg">
<path d="M9.4907 16.1146C5.77904 16.1146 2.76154 13.0971 2.76154 9.38542C2.76154 5.67375 5.77904 2.65625 9.4907 2.65625C13.2024 2.65625 16.2199 5.67375 16.2199 9.38542C16.2199 13.0971 13.2024 16.1146 9.4907 16.1146ZM9.4907 3.71875C6.36695 3.71875 3.82404 6.26167 3.82404 9.38542C3.82404 12.5092 6.36695 15.0521 9.4907 15.0521C12.6145 15.0521 15.1574 12.5092 15.1574 9.38542C15.1574 6.26167 12.6145 3.71875 9.4907 3.71875Z" fill="#A9A9A9"/>
<path d="M9.49072 9.73954C9.20031 9.73954 8.95947 9.49871 8.95947 9.20829V5.66663C8.95947 5.37621 9.20031 5.13538 9.49072 5.13538C9.78114 5.13538 10.022 5.37621 10.022 5.66663V9.20829C10.022 9.49871 9.78114 9.73954 9.49072 9.73954Z" fill="#A9A9A9"/>
<path d="M11.6157 1.94788H7.36572C7.07531 1.94788 6.83447 1.70704 6.83447 1.41663C6.83447 1.12621 7.07531 0.885376 7.36572 0.885376H11.6157C11.9061 0.885376 12.147 1.12621 12.147 1.41663C12.147 1.70704 11.9061 1.94788 11.6157 1.94788Z" fill="#A9A9A9"/>
</svg>
