<svg width="26" height="24" viewBox="0 0 26 24" fill="none" xmlns="http://www.w3.org/2000/svg">
<path d="M4.23797 13.9224C5.12457 9.9924 8.83088 7.2 13 7.2C17.1678 7.2 20.8741 9.9924 21.762 13.9224C21.7971 14.0783 21.898 14.215 22.0423 14.3023C22.1866 14.3896 22.3626 14.4205 22.5316 14.388C22.7005 14.3555 22.8486 14.2625 22.9432 14.1292C23.0378 13.996 23.0711 13.8335 23.036 13.6776C22.0259 9.2076 17.8009 6 13 6C8.19908 6 3.97407 9.2076 2.96397 13.6776C2.92881 13.8335 2.96219 13.996 3.05679 14.1292C3.15138 14.2625 3.29943 14.3555 3.46837 14.388C3.63732 14.4205 3.81331 14.3896 3.95764 14.3023C4.10197 14.215 4.20281 14.0783 4.23797 13.9224ZM13 9.6C11.7932 9.6 10.6359 10.0425 9.78264 10.8302C8.92935 11.6178 8.44998 12.6861 8.44998 13.8C8.44998 14.9139 8.92935 15.9822 9.78264 16.7698C10.6359 17.5575 11.7932 18 13 18C14.2067 18 15.364 17.5575 16.2173 16.7698C17.0706 15.9822 17.55 14.9139 17.55 13.8C17.55 12.6861 17.0706 11.6178 16.2173 10.8302C15.364 10.0425 14.2067 9.6 13 9.6ZM9.74998 13.8C9.74998 13.0044 10.0924 12.2413 10.7019 11.6787C11.3114 11.1161 12.138 10.8 13 10.8C13.8619 10.8 14.6886 11.1161 15.2981 11.6787C15.9076 12.2413 16.25 13.0044 16.25 13.8C16.25 14.5956 15.9076 15.3587 15.2981 15.9213C14.6886 16.4839 13.8619 16.8 13 16.8C12.138 16.8 11.3114 16.4839 10.7019 15.9213C10.0924 15.3587 9.74998 14.5956 9.74998 13.8Z" fill="#444444"/>
</svg>
