<svg width="40" height="40" viewBox="0 0 40 40" fill="none" xmlns="http://www.w3.org/2000/svg">
<rect width="40" height="40" rx="10" fill="#129575"/>
<path d="M28.3333 16.0417H23.3333C22.9916 16.0417 22.7083 15.7584 22.7083 15.4167C22.7083 15.075 22.9916 14.7917 23.3333 14.7917H28.3333C28.675 14.7917 28.9583 15.075 28.9583 15.4167C28.9583 15.7584 28.675 16.0417 28.3333 16.0417Z" fill="white"/>
<path d="M15 16.0417H11.6667C11.325 16.0417 11.0417 15.7584 11.0417 15.4167C11.0417 15.075 11.325 14.7917 11.6667 14.7917H15C15.3417 14.7917 15.625 15.075 15.625 15.4167C15.625 15.7584 15.3417 16.0417 15 16.0417Z" fill="white"/>
<path d="M18.3334 18.9583C16.3834 18.9583 14.7917 17.3667 14.7917 15.4167C14.7917 13.4667 16.3834 11.875 18.3334 11.875C20.2834 11.875 21.875 13.4667 21.875 15.4167C21.875 17.3667 20.2834 18.9583 18.3334 18.9583ZM18.3334 13.125C17.0667 13.125 16.0417 14.15 16.0417 15.4167C16.0417 16.6833 17.0667 17.7083 18.3334 17.7083C19.6 17.7083 20.625 16.6833 20.625 15.4167C20.625 14.15 19.6 13.125 18.3334 13.125Z" fill="white"/>
<path d="M28.3333 25.2083H25C24.6583 25.2083 24.375 24.925 24.375 24.5833C24.375 24.2416 24.6583 23.9583 25 23.9583H28.3333C28.675 23.9583 28.9583 24.2416 28.9583 24.5833C28.9583 24.925 28.675 25.2083 28.3333 25.2083Z" fill="white"/>
<path d="M16.6667 25.2083H11.6667C11.325 25.2083 11.0417 24.925 11.0417 24.5833C11.0417 24.2416 11.325 23.9583 11.6667 23.9583H16.6667C17.0084 23.9583 17.2917 24.2416 17.2917 24.5833C17.2917 24.925 17.0084 25.2083 16.6667 25.2083Z" fill="white"/>
<path d="M21.6667 28.125C19.7167 28.125 18.125 26.5334 18.125 24.5834C18.125 22.6334 19.7167 21.0417 21.6667 21.0417C23.6167 21.0417 25.2083 22.6334 25.2083 24.5834C25.2083 26.5334 23.6167 28.125 21.6667 28.125ZM21.6667 22.2917C20.4 22.2917 19.375 23.3167 19.375 24.5834C19.375 25.85 20.4 26.875 21.6667 26.875C22.9333 26.875 23.9583 25.85 23.9583 24.5834C23.9583 23.3167 22.9333 22.2917 21.6667 22.2917Z" fill="white"/>
</svg>
