<svg width="24" height="24" viewBox="0 0 24 24" fill="none" xmlns="http://www.w3.org/2000/svg">
<path d="M2.22002 2.22008C2.09319 2.34695 2.01604 2.51507 2.00255 2.69395C1.98907 2.87284 2.04014 3.05063 2.14652 3.19508L2.22002 3.28058L6.25502 7.31558C4.28793 8.69396 2.8836 10.7352 2.29952 13.0651C2.25651 13.2562 2.29 13.4566 2.39281 13.6233C2.49562 13.7901 2.6596 13.91 2.84968 13.9574C3.03976 14.0048 3.24085 13.976 3.40994 13.8771C3.57904 13.7782 3.70271 13.617 3.75452 13.4281C4.27318 11.3602 5.5508 9.56321 7.33352 8.39408L9.14402 10.2046C8.41776 10.9595 8.01661 11.9693 8.02675 13.0168C8.0369 14.0643 8.45753 15.0661 9.19828 15.8068C9.93903 16.5476 10.9408 16.9682 11.9883 16.9783C13.0358 16.9885 14.0456 16.5873 14.8005 15.8611L20.7195 21.7801C20.8534 21.9134 21.0326 21.9912 21.2213 21.9982C21.4101 22.0051 21.5945 21.9405 21.7377 21.8174C21.8809 21.6942 21.9724 21.5216 21.9939 21.3339C22.0154 21.1462 21.9652 20.9574 21.8535 20.8051L21.78 20.7196L15.6675 14.6056V14.6041L14.4675 13.4056L11.598 10.5361L8.71952 7.65758L7.58702 6.52508L3.28052 2.22008C3.13988 2.07947 2.94915 2.00049 2.75027 2.00049C2.5514 2.00049 2.36067 2.07947 2.22002 2.22008ZM10.2045 11.2651L13.7385 14.8006C13.2665 15.2537 12.6356 15.5037 11.9814 15.497C11.3271 15.4903 10.7015 15.2274 10.2388 14.7648C9.77618 14.3021 9.5133 13.6765 9.5066 13.0222C9.4999 12.368 9.75142 11.7371 10.2045 11.2651ZM12 5.50058C10.9995 5.50058 10.029 5.64758 9.11102 5.92508L10.3485 7.16108C12.4881 6.73726 14.7088 7.15183 16.5514 8.31908C18.394 9.48633 19.7176 11.317 20.2485 13.4326C20.3003 13.6215 20.424 13.7827 20.5931 13.8816C20.7622 13.9805 20.9633 14.0093 21.1534 13.9619C21.3434 13.9145 21.5074 13.7946 21.6102 13.6278C21.7131 13.4611 21.7465 13.2607 21.7035 13.0696C21.1609 10.907 19.9114 8.9877 18.1534 7.6164C16.3954 6.2451 14.2296 5.50041 12 5.50058ZM12.195 9.01058L15.996 12.8101C15.9473 11.8177 15.5312 10.879 14.8287 10.1764C14.1261 9.47388 13.1874 9.05928 12.195 9.01058Z" fill="#444444"/>
</svg>
