<svg width="16" height="16" viewBox="0 0 16 16" fill="none" xmlns="http://www.w3.org/2000/svg">
<path fill-rule="evenodd" clip-rule="evenodd" d="M7.98019 1.16663C6.91261 1.16663 6.02551 1.20468 5.30588 1.35196C4.57721 1.50108 3.97667 1.77068 3.52549 2.26495C3.07962 2.75339 2.83154 3.40491 2.68935 4.21273C2.54741 5.01911 2.50285 6.03153 2.50285 7.28596C2.50285 7.77009 2.50203 8.22465 2.50126 8.65103C2.49762 10.6675 2.49511 12.0538 2.58603 12.9579C2.64027 13.4974 2.73382 13.9552 2.93949 14.2841C3.05011 14.461 3.19701 14.6075 3.38775 14.7051C3.57508 14.8009 3.77287 14.8333 3.96219 14.8333C4.3947 14.8333 4.81409 14.5954 5.15262 14.3602C5.48309 14.1305 5.83096 13.8332 6.15993 13.5521L6.2378 13.4856C6.60107 13.1755 6.94228 12.8892 7.26247 12.679C7.59461 12.461 7.82808 12.3773 7.98019 12.3773C8.13229 12.3773 8.36576 12.461 8.6979 12.679C9.0181 12.8892 9.3593 13.1755 9.72257 13.4856L9.80043 13.5521C10.1294 13.8332 10.4773 14.1305 10.8078 14.3602C11.1463 14.5954 11.5657 14.8333 11.9982 14.8333C12.1875 14.8333 12.3853 14.8009 12.5726 14.7051C12.7634 14.6075 12.9103 14.461 13.0209 14.2841C13.2266 13.9552 13.3201 13.4974 13.3743 12.9579C13.4653 12.0538 13.4628 10.6675 13.4591 8.65103C13.4583 8.22465 13.4575 7.77009 13.4575 7.28596C13.4575 6.03153 13.413 5.01911 13.271 4.21273C13.1288 3.40491 12.8807 2.75339 12.4349 2.26495C11.9837 1.77068 11.3832 1.50108 10.6545 1.35196C9.93486 1.20468 9.04777 1.16663 7.98019 1.16663ZM3.50285 7.28596C3.50285 6.04139 3.54821 5.1019 3.67421 4.38608C3.79995 3.67172 3.99783 3.23077 4.26405 2.93913C4.52495 2.65332 4.90262 2.45521 5.50638 2.33165C6.11919 2.20624 6.91877 2.16663 7.98019 2.16663C9.04161 2.16663 9.84118 2.20624 10.454 2.33165C11.0578 2.45521 11.4354 2.65332 11.6963 2.93913C11.9625 3.23077 12.1604 3.67172 12.2862 4.38608C12.4122 5.1019 12.4575 6.04139 12.4575 7.28596C12.4575 7.78188 12.4583 8.24379 12.459 8.67392C12.4625 10.6911 12.4647 12.0093 12.3794 12.8578C12.3268 13.3808 12.247 13.6356 12.173 13.7539C12.1438 13.8006 12.1243 13.8112 12.1172 13.8148C12.1066 13.8203 12.0749 13.8333 11.9982 13.8333C11.899 13.8333 11.7026 13.7642 11.3784 13.5389C11.0909 13.3392 10.78 13.0736 10.4386 12.7821L10.3718 12.725C10.0157 12.4211 9.62794 12.0934 9.24672 11.8431C8.87744 11.6006 8.43708 11.3773 7.98019 11.3773C7.52329 11.3773 7.08293 11.6006 6.71365 11.8431C6.33243 12.0934 5.94463 12.4211 5.58857 12.725L5.52175 12.7821L5.52171 12.7821C5.18035 13.0737 4.86943 13.3392 4.58201 13.5389C4.25778 13.7642 4.06134 13.8333 3.96219 13.8333C3.8855 13.8333 3.85381 13.8203 3.84321 13.8148C3.83602 13.8112 3.81654 13.8006 3.78734 13.7539C3.71339 13.6356 3.6336 13.3808 3.58101 12.8578C3.49568 12.0093 3.49792 10.6911 3.50134 8.67393L3.50134 8.67387C3.50207 8.24375 3.50285 7.78186 3.50285 7.28596ZM5.69501 5.64509C5.41886 5.64509 5.19501 5.86895 5.19501 6.14509C5.19501 6.42123 5.41886 6.64509 5.69501 6.64509H10.265C10.5412 6.64509 10.765 6.42123 10.765 6.14509C10.765 5.86895 10.5412 5.64509 10.265 5.64509H5.69501Z" fill="#71B1A1"/>
</svg>
