<svg width="17" height="18" viewBox="0 0 17 18" fill="none" xmlns="http://www.w3.org/2000/svg">
<g clip-path="url(#clip0_19_1178)">
<path d="M5.66664 4.58557C5.63899 4.55815 5.63899 4.55815 5.61135 4.53073C5.47314 4.39363 5.41786 4.33879 5.41786 4.22912C5.41786 4.09202 5.47314 4.0646 5.61135 3.9275C5.66664 3.87266 5.74956 3.79041 5.80485 3.73557C5.88777 3.62589 5.88777 3.48879 5.77721 3.40654C5.66664 3.32428 5.52843 3.32428 5.4455 3.43395C5.39021 3.48879 5.33493 3.54363 5.27964 3.59847C5.11379 3.76299 4.94794 3.9275 4.94794 4.25653C4.94794 4.58557 5.11379 4.75008 5.27964 4.9146C5.30729 4.94202 5.30729 4.94202 5.33493 4.96944C5.50078 5.10653 5.61135 5.21621 5.61135 5.46299C5.61135 5.73718 5.47314 5.9017 5.30729 6.06621C5.27964 6.09363 5.27964 6.09363 5.252 6.12105C5.16908 6.23073 5.16908 6.36783 5.27964 6.45008C5.33493 6.4775 5.39021 6.50492 5.4455 6.50492C5.50078 6.50492 5.58371 6.4775 5.63899 6.42266C5.66664 6.39524 5.66664 6.39524 5.69428 6.36783C5.88777 6.17589 6.13656 5.9017 6.13656 5.43557C6.10891 4.96944 5.86013 4.75008 5.66664 4.58557Z" fill="#A9A9A9" stroke="#A9A9A9" stroke-width="0.2"/>
<path d="M9.03901 3.51623C9.01137 3.48881 9.01137 3.48881 8.98373 3.46139C8.84552 3.3243 8.79023 3.26946 8.79023 3.15978C8.79023 3.02268 8.84552 2.99526 8.98373 2.85817C9.03901 2.80333 9.12194 2.72107 9.17722 2.66623C9.26015 2.55655 9.26015 2.41946 9.14958 2.3372C9.03901 2.25494 8.9008 2.25494 8.81787 2.36462C8.76259 2.41946 8.7073 2.4743 8.65202 2.52913C8.48617 2.69365 8.32031 2.85817 8.32031 3.1872C8.32031 3.51623 8.48617 3.68075 8.65202 3.84526C8.67966 3.87268 8.67966 3.87268 8.7073 3.9001C8.87316 4.0372 8.98373 4.14688 8.98373 4.39365C8.98373 4.66784 8.84552 4.83236 8.67966 4.99688C8.65202 5.0243 8.65202 5.0243 8.62438 5.05172C8.54145 5.16139 8.54145 5.29849 8.65202 5.38075C8.7073 5.40817 8.76259 5.43559 8.81787 5.43559C8.87316 5.43559 8.95608 5.40817 9.01137 5.35333C9.03901 5.32591 9.03901 5.32591 9.06665 5.29849C9.26015 5.10655 9.50893 4.83236 9.50893 4.36623C9.48129 3.9001 9.23251 3.68075 9.03901 3.51623Z" fill="#A9A9A9" stroke="#A9A9A9" stroke-width="0.2"/>
<path d="M12.439 4.58557C12.4114 4.55815 12.4114 4.55815 12.3838 4.53073C12.2455 4.39363 12.1903 4.33879 12.1903 4.22912C12.1903 4.09202 12.2455 4.0646 12.3838 3.9275C12.439 3.87266 12.522 3.79041 12.5772 3.73557C12.6602 3.62589 12.6602 3.48879 12.5496 3.40654C12.439 3.32428 12.3008 3.32428 12.2179 3.43395C12.1626 3.48879 12.1073 3.54363 12.052 3.59847C11.8862 3.76299 11.7203 3.9275 11.7203 4.25653C11.7203 4.58557 11.8862 4.75008 12.052 4.9146C12.0797 4.94202 12.0797 4.94202 12.1073 4.96944C12.2732 5.10653 12.3838 5.21621 12.3838 5.46299C12.3838 5.73718 12.2455 5.9017 12.0797 6.06621C12.052 6.09363 12.052 6.09363 12.0244 6.12105C11.9415 6.23073 11.9415 6.36783 12.052 6.45008C12.1073 6.4775 12.1626 6.50492 12.2179 6.50492C12.2732 6.50492 12.3561 6.4775 12.4114 6.42266C12.439 6.39524 12.439 6.39524 12.4667 6.36783C12.6602 6.17589 12.909 5.9017 12.909 5.43557C12.8537 4.96944 12.6049 4.75008 12.439 4.58557Z" fill="#A9A9A9" stroke="#A9A9A9" stroke-width="0.2"/>
<path d="M16.8065 14.5662H0.995118C0.856907 14.5662 0.746338 14.6758 0.746338 14.8129V15.3887C0.746338 16.0194 1.27154 16.5404 1.90731 16.5404H15.8943C16.5301 16.5404 17.0553 16.0194 17.0553 15.3887V14.8129C17.0553 14.6758 16.9447 14.5662 16.8065 14.5662ZM16.5577 15.3887C16.5577 15.7726 16.2537 16.0742 15.8667 16.0742H1.90731C1.52032 16.0742 1.21626 15.7726 1.21626 15.3887V15.0597H16.5577V15.3887Z" fill="#A9A9A9" stroke="#A9A9A9" stroke-width="0.2"/>
<path d="M13.2959 9.41139C12.3285 8.47913 11.0846 7.90333 9.78537 7.71139L10.2553 7.24526C10.3935 7.10817 10.4488 6.88881 10.3659 6.69688C10.2829 6.50494 10.1171 6.39526 9.89594 6.39526H7.90569C7.7122 6.39526 7.5187 6.50494 7.43577 6.69688C7.35285 6.88881 7.40813 7.08075 7.54634 7.24526L8.01626 7.71139C6.68943 7.90333 5.47317 8.47913 4.47805 9.41139C3.28943 10.5356 2.59838 12.0711 2.54309 13.6888C2.54309 13.8259 2.65366 13.9356 2.76423 13.9356C2.90244 13.9356 3.01301 13.8259 3.01301 13.7162C3.06829 12.2082 3.70407 10.8098 4.80976 9.76784C5.83252 8.78075 7.15935 8.23236 8.54147 8.1501C8.56911 8.1501 8.59675 8.1501 8.62439 8.1501C8.65203 8.1501 8.67968 8.1501 8.70732 8.1501C8.73496 8.1501 8.73496 8.1501 8.7626 8.1501C8.79025 8.1501 8.84553 8.1501 8.87317 8.1501C8.90081 8.1501 8.9561 8.1501 8.98374 8.1501C9.01138 8.1501 9.01138 8.1501 9.03903 8.1501C9.06667 8.1501 9.09431 8.1501 9.12195 8.1501C9.14959 8.1501 9.17724 8.1501 9.20488 8.1501C10.6146 8.23236 11.9138 8.78075 12.9366 9.76784C14.0423 10.8098 14.6781 12.2082 14.7333 13.7162C14.7333 13.8533 14.8439 13.963 14.9821 13.9356C15.1203 13.9356 15.2309 13.8259 15.2033 13.6888C15.1756 12.0437 14.4846 10.5356 13.2959 9.41139ZM9.14959 7.65655H9.12195C9.09431 7.65655 9.06667 7.65655 9.03903 7.65655C8.98374 7.65655 8.9561 7.65655 8.90081 7.65655C8.84553 7.65655 8.81789 7.65655 8.7626 7.65655C8.73496 7.65655 8.70732 7.65655 8.67968 7.65655H8.65203L7.90569 6.91623H9.89594L9.14959 7.65655Z" fill="#A9A9A9" stroke="#A9A9A9" stroke-width="0.2"/>
</g>
<defs>
<clipPath id="clip0_19_1178">
<rect width="17" height="17" fill="white" transform="translate(0 0.5)"/>
</clipPath>
</defs>
</svg>
