<svg width="44" height="44" viewBox="0 0 44 44" fill="none" xmlns="http://www.w3.org/2000/svg">
<path d="M19.25 10.3125C19.25 9.7686 19.4113 9.23692 19.7135 8.78468C20.0156 8.33245 20.4451 7.97997 20.9476 7.77183C21.4501 7.56369 22.0031 7.50923 22.5365 7.61534C23.0699 7.72145 23.56 7.98336 23.9445 8.36796C24.3291 8.75255 24.5911 9.24256 24.6972 9.776C24.8033 10.3095 24.7488 10.8624 24.5407 11.3649C24.3325 11.8674 23.9801 12.2969 23.5278 12.599C23.0756 12.9012 22.5439 13.0625 22 13.0625C21.2707 13.0625 20.5712 12.7728 20.0555 12.257C19.5397 11.7413 19.25 11.0418 19.25 10.3125ZM22 19.25C21.4561 19.25 20.9244 19.4113 20.4722 19.7135C20.0199 20.0156 19.6675 20.4451 19.4593 20.9476C19.2512 21.4501 19.1967 22.0031 19.3028 22.5365C19.409 23.0699 19.6709 23.56 20.0555 23.9445C20.4401 24.3291 20.9301 24.5911 21.4635 24.6972C21.997 24.8033 22.5499 24.7488 23.0524 24.5407C23.5549 24.3325 23.9844 23.9801 24.2865 23.5278C24.5887 23.0756 24.75 22.5439 24.75 22C24.75 21.2707 24.4603 20.5712 23.9445 20.0555C23.4288 19.5397 22.7293 19.25 22 19.25ZM22 30.9375C21.4561 30.9375 20.9244 31.0988 20.4722 31.401C20.0199 31.7031 19.6675 32.1326 19.4593 32.6351C19.2512 33.1376 19.1967 33.6906 19.3028 34.224C19.409 34.7574 19.6709 35.2475 20.0555 35.632C20.4401 36.0166 20.9301 36.2786 21.4635 36.3847C21.997 36.4908 22.5499 36.4363 23.0524 36.2282C23.5549 36.02 23.9844 35.6676 24.2865 35.2153C24.5887 34.7631 24.75 34.2314 24.75 33.6875C24.75 32.9582 24.4603 32.2587 23.9445 31.743C23.4288 31.2272 22.7293 30.9375 22 30.9375Z" fill="#444444"/>
</svg>
