<svg width="24" height="24" viewBox="0 0 24 24" fill="none" xmlns="http://www.w3.org/2000/svg">
<path fill-rule="evenodd" clip-rule="evenodd" d="M11.1094 18.772C11.3928 18.4687 11.3918 17.978 11.1072 17.6761L6.48795 12.7751H19.2727L19.3714 12.768C19.7264 12.7167 20 12.3924 20 12.0001C20 11.5721 19.6744 11.2251 19.2727 11.2251H6.48946L11.1072 6.32426L11.1778 6.2375C11.3896 5.93458 11.367 5.504 11.1093 5.2283C10.8259 4.92503 10.3654 4.92401 10.0808 5.22603L4.23131 11.4335C4.0952 11.5689 4.00792 11.7593 4.00068 11.9714C3.99333 12.1799 4.06453 12.391 4.21428 12.5499L10.0809 18.7744L10.1626 18.8492C10.4478 19.0737 10.8517 19.0477 11.1094 18.772Z" fill="#303030"/>
</svg>
