<svg width="14" height="14" viewBox="0 0 14 14" fill="none" xmlns="http://www.w3.org/2000/svg">
<path fill-rule="evenodd" clip-rule="evenodd" d="M8.21317 1.21409C8.21317 0.543569 7.67006 0 7.00011 0C6.33015 0 5.78705 0.543569 5.78705 1.21409V5.78588H1.21306C0.543106 5.78588 0 6.32945 0 6.99998C0 7.6705 0.543106 8.21407 1.21306 8.21407H5.78705V12.7859C5.78705 13.4564 6.33015 14 7.00011 14C7.67006 14 8.21317 13.4564 8.21317 12.7859V8.21407H12.7869C13.4569 8.21407 14 7.6705 14 6.99998C14 6.32945 13.4569 5.78588 12.7869 5.78588H8.21317V1.21409Z" fill="white"/>
</svg>
