<svg width="24" height="24" viewBox="0 0 24 24" fill="none" xmlns="http://www.w3.org/2000/svg">
<path d="M5.40853 12.4276L5.40856 12.4276L5.4115 12.4226C5.56166 12.1661 5.69076 11.8206 5.78205 11.489C5.87324 11.1578 5.93999 10.7923 5.93999 10.49V8.63005C5.93999 5.27767 8.6648 2.55967 12.0207 2.55005C15.3637 2.55042 18.09 5.27593 18.09 8.63005V10.5C18.09 10.8025 18.1568 11.1683 18.2497 11.5008C18.3423 11.8325 18.4746 12.18 18.6322 12.4389C18.6325 12.4394 18.6328 12.4399 18.6331 12.4404L19.7601 14.3155C19.7603 14.3158 19.7605 14.3161 19.7607 14.3164C20.0943 14.8785 20.1572 15.5395 19.932 16.1439C19.7044 16.7447 19.2269 17.2144 18.6009 17.426C17.5447 17.778 16.4614 18.0511 15.3707 18.2264L15.3706 18.2263L15.3605 18.2281C15.2467 18.2488 15.1587 18.2645 15.0747 18.2721L15.0562 18.2738L15.0378 18.2769C14.8734 18.3042 14.707 18.3229 14.5248 18.3431L14.5248 18.343L14.5124 18.3446C14.3067 18.3727 14.0891 18.3917 13.8567 18.4119L13.8567 18.4119L13.8518 18.4124C13.2481 18.4708 12.6342 18.5 12.02 18.5C11.3955 18.5 10.7713 18.4708 10.1574 18.4123L10.1574 18.4122L10.1469 18.4114C9.89034 18.3924 9.64338 18.3639 9.39602 18.3259L9.39603 18.3258L9.38607 18.3244C9.23877 18.3048 9.09425 18.2855 8.95948 18.2663C8.897 18.2552 8.83649 18.247 8.78663 18.2402L8.78255 18.2396C8.72577 18.2319 8.68173 18.2258 8.63943 18.2181L8.63944 18.2181L8.63435 18.2172C7.5456 18.0309 6.48065 17.7766 5.42811 17.4257L5.42453 17.4245C4.76183 17.2092 4.27295 16.7352 4.05895 16.1566L4.05815 16.1545C3.84855 15.5955 3.91633 14.9237 4.27973 14.3056L5.40853 12.4276ZM11.99 11.26C12.6861 11.26 13.25 10.6962 13.25 10V6.90005C13.25 6.20391 12.6861 5.64005 11.99 5.64005C11.2938 5.64005 10.73 6.20391 10.73 6.90005V10C10.73 10.6962 11.2938 11.26 11.99 11.26Z" fill="#DBEBE7" stroke="#129575"/>
<path d="M14.83 20.01C14.41 21.17 13.3 22 12 22C11.21 22 10.43 21.68 9.87999 21.11C9.55999 20.81 9.31999 20.41 9.17999 20C9.30999 20.02 9.43999 20.03 9.57999 20.05C9.80999 20.08 10.05 20.11 10.29 20.13C10.86 20.18 11.44 20.21 12.02 20.21C12.59 20.21 13.16 20.18 13.72 20.13C13.93 20.11 14.14 20.1 14.34 20.07C14.5 20.05 14.66 20.03 14.83 20.01Z" fill="#DBEBE7" stroke="#129575"/>
</svg>
