<svg width="24" height="24" viewBox="0 0 24 24" fill="none" xmlns="http://www.w3.org/2000/svg">
<path d="M20.47 6.20554L20.4701 6.20564C21.1413 6.67545 21.706 7.3863 22.1024 8.14547C22.4987 8.90465 22.76 9.77616 22.76 10.6001V17.3801C22.76 20.3443 20.3542 22.7501 17.39 22.7501H6.61001C3.64368 22.7501 1.24001 20.3322 1.24001 17.3701V10.4701C1.24001 9.69672 1.47818 8.86783 1.83714 8.13877C2.19628 7.40935 2.70831 6.71486 3.31857 6.23881C3.31862 6.23877 3.31868 6.23872 3.31873 6.23868L8.32857 2.32881L8.33064 2.3272L8.33064 2.3272C10.1003 0.955981 12.8707 0.887194 14.71 2.17554L20.47 6.20554ZM20.47 6.20554L14.7104 2.17582L20.47 6.20554Z" fill="white" stroke="#D9D9D9" stroke-width="1.5"/>
</svg>
