<svg width="24" height="24" viewBox="0 0 24 24" fill="none" xmlns="http://www.w3.org/2000/svg">
<path d="M12 10.5199C11.59 10.5199 11.25 10.1799 11.25 9.76994V6.43994C11.25 6.02994 11.59 5.68994 12 5.68994C12.41 5.68994 12.75 6.02994 12.75 6.43994V9.76994C12.75 10.1899 12.41 10.5199 12 10.5199Z" fill="#D9D9D9"/>
<path d="M12.02 20.35C9.44 20.35 6.87 19.94 4.42 19.12C3.51 18.82 2.82 18.17 2.52 17.35C2.22 16.53 2.32 15.59 2.81 14.77L4.08 12.65C4.36 12.18 4.61 11.3 4.61 10.75V8.64999C4.61 4.55999 7.93 1.23999 12.02 1.23999C16.11 1.23999 19.43 4.55999 19.43 8.64999V10.75C19.43 11.29 19.68 12.18 19.96 12.65L21.23 14.77C21.7 15.55 21.78 16.48 21.47 17.33C21.16 18.18 20.48 18.83 19.62 19.12C17.17 19.95 14.6 20.35 12.02 20.35ZM12.02 2.74999C8.76 2.74999 6.11 5.39999 6.11 8.65999V10.76C6.11 11.57 5.79 12.74 5.37 13.43L4.1 15.56C3.84 15.99 3.78 16.45 3.93 16.85C4.08 17.25 4.42 17.55 4.9 17.71C9.5 19.24 14.56 19.24 19.16 17.71C19.59 17.57 19.92 17.25 20.07 16.83C20.23 16.41 20.18 15.95 19.95 15.56L18.68 13.44C18.26 12.75 17.94 11.58 17.94 10.77V8.66999C17.93 5.39999 15.28 2.74999 12.02 2.74999Z" fill="#D9D9D9"/>
<path d="M12 22.8999C10.93 22.8999 9.88 22.4599 9.12 21.6999C8.36 20.9399 7.92 19.8899 7.92 18.8199H9.42C9.42 19.4999 9.7 20.1599 10.18 20.6399C10.66 21.1199 11.32 21.3999 12 21.3999C13.42 21.3999 14.58 20.2399 14.58 18.8199H16.08C16.08 21.0699 14.25 22.8999 12 22.8999Z" fill="#D9D9D9"/>
</svg>
